#!OML:ASF F:\VICON\USERDATA\INSTALL\rory3\rory3.ASF
:FULLY-SPECIFIED
:DEGREES
3921
root -13.4626 17.7398 14.165 -0.709481 239.51 -360.985
lowerback 11.5748 2.09738 3.49149
upperback 1.45025 3.17376 0.71961
thorax -4.81403 1.46873 -1.69712
lowerneck -14.7916 -1.18653 -11.8079
upperneck 39.7553 -1.64456 3.18699
head 17.1469 -2.81017 3.01071
rclavicle 1.00038e-013 -7.95139e-016
rhumerus -37.5189 -1.10496 -83.0946
rradius 37.923
rwrist 1.58267
rhand -17.9076 8.08877
rfingers 7.12502
rthumb 8.35951 -21.7258
lclavicle 1.00038e-013 -7.95139e-016
lhumerus -35.0128 13.1353 73.4579
lradius 36.397
lwrist 0.01504
lhand -17.2395 28.7446
lfingers 7.12502
lthumb 9.00424 58.5324
rfemur -7.09967 5.26304 20.4279
rtibia 31.1511
rfoot -19.721 7.31078
rtoes 6.56393
lfemur -17.0602 -15.8995 -16.9967
ltibia 26.7536
lfoot -8.85819 -24.3667
ltoes -7.39015
3922
root -13.4312 17.749 14.1563 -0.343328 240.311 -361.214
lowerback 11.4846 2.10368 3.4031
upperback 1.4808 3.16817 0.751341
thorax -4.73888 1.46995 -1.60891
lowerneck -14.8539 -1.19783 -11.7917
upperneck 39.6483 -1.63352 3.24544
head 17.1022 -2.77501 3.03901
rclavicle 3.57812e-015 -1.35174e-014
rhumerus -37.3341 -0.78382 -83.0001
rradius 37.9202
rwrist 1.69028
rhand -17.7476 7.97279
rfingers 7.12502
rthumb 8.5139 -21.8356
lclavicle 3.57812e-015 -1.35174e-014
lhumerus -35.5311 13.6932 73.6165
lradius 36.2861
lwrist -0.272807
lhand -15.9093 27.9244
lfingers 7.12502
lthumb 10.2877 57.6528
rfemur -7.11295 4.93455 20.3787
rtibia 30.8213
rfoot -19.5037 6.86425
rtoes 6.32385
lfemur -17.3122 -15.1914 -17.3959
ltibia 27.629
lfoot -11.2015 -20.2271
ltoes -11.8419
3923
root -13.3966 17.754 14.1439 -0.188622 241.09 -361.302
lowerback 11.4798 2.12949 3.28108
upperback 1.55115 3.18586 0.815092
thorax -4.67187 1.48237 -1.47467
lowerneck -14.9285 -1.24876 -11.6428
upperneck 39.4959 -1.67376 3.18952
head 17.039 -2.75204 2.98157
rclavicle 1.43125e-014 1.74931e-014
rhumerus -37.1197 -0.790226 -82.8694
rradius 37.917
rwrist 2.12744
rhand -17.4376 7.68246
rfingers 7.12502
rthumb 8.81303 -22.1135
lclavicle 1.43125e-014 1.74931e-014
lhumerus -35.963 14.0001 73.7993
lradius 36.1303
lwrist -0.433225
lhand -14.5621 27.3278
lfingers 7.12502
lthumb 11.587 56.9875
rfemur -7.06244 4.64287 20.4656
rtibia 30.5732
rfoot -19.361 6.29895
rtoes 5.83946
lfemur -17.4181 -14.4078 -17.753
ltibia 28.4786
lfoot -12.2701 -16.2866
ltoes -13.8595
3924
root -13.3621 17.7582 14.1291 -0.288733 241.904 -361.192
lowerback 11.5483 2.14756 3.21763
upperback 1.65493 3.20072 0.888921
thorax -4.60804 1.49149 -1.36464
lowerneck -15.1042 -1.34325 -11.3945
upperneck 39.4025 -1.78303 3.08038
head 17.0395 -2.75271 2.87049
rclavicle -3.47873e-014 -8.74653e-015
rhumerus -36.8156 -0.977371 -82.7179
rradius 37.8358
rwrist 2.55954
rhand -17.1258 7.43763
rfingers 7.12502
rthumb 9.11396 -22.3454
lclavicle -3.47873e-014 -8.74653e-015
lhumerus -36.258 14.2672 74.0191
lradius 35.8763
lwrist -0.453611
lhand -14.3634 27.3076
lfingers 7.12502
lthumb 11.7786 56.9564
rfemur -6.94055 4.33151 20.6752
rtibia 30.3805
rfoot -19.2691 5.79962
rtoes 5.57452
lfemur -17.3875 -13.5634 -18.0265
ltibia 29.3047
lfoot -12.7215 -12.8419
ltoes -14.2177
3925
root -13.3329 17.7663 14.1176 -0.137535 242.741 -361.284
lowerback 11.5568 2.14655 3.16998
upperback 1.66567 3.19362 0.880083
thorax -4.60391 1.48917 -1.34628
lowerneck -15.1068 -1.42669 -11.0145
upperneck 39.3095 -1.94444 2.92681
head 16.9968 -2.76684 2.70531
rclavicle -2.89232e-014 2.14687e-014
rhumerus -36.6458 -1.27826 -82.564
rradius 37.7478
rwrist 2.80451
rhand -16.9285 7.42103
rfingers 7.12502
rthumb 9.30434 -22.3536
lclavicle -2.89232e-014 2.14687e-014
lhumerus -36.664 14.47 74.1737
lradius 35.574
lwrist -0.598321
lhand -14.3878 27.4812
lfingers 7.12502
lthumb 11.7551 57.1313
rfemur -6.90578 3.9849 20.7313
rtibia 30.2113
rfoot -19.1441 5.43883
rtoes 6.18081
lfemur -17.3836 -12.5707 -18.4188
ltibia 30.1328
lfoot -12.9343 -9.92344
ltoes -13.4692
3926
root -13.3075 17.776 14.1143 0.137026 243.631 -361.419
lowerback 11.5228 2.11614 3.27927
upperback 1.57936 3.16972 0.816119
thorax -4.66704 1.47518 -1.47143
lowerneck -14.9118 -1.47423 -10.8792
upperneck 39.1981 -2.13064 3.08337
head 16.9016 -2.78955 2.71972
rclavicle 5.48646e-014 1.19271e-014
rhumerus -36.7012 -1.52915 -82.4647
rradius 37.7413
rwrist 2.7957
rhand -17.0668 7.33402
rfingers 7.12502
rthumb 9.17085 -22.4466
lclavicle 5.48646e-014 1.19271e-014
lhumerus -37.1846 14.5179 74.3414
lradius 35.2565
lwrist -0.763052
lhand -14.4265 27.4237
lfingers 7.12502
lthumb 11.7179 57.0759
rfemur -6.9851 3.46511 20.7067
rtibia 30.0595
rfoot -19.0163 5.21436
rtoes 7.17281
lfemur -17.4944 -11.3727 -18.8581
ltibia 30.9733
lfoot -12.8341 -7.58623
ltoes -12.2459
3927
root -13.2815 17.7848 14.1137 0.676256 244.535 -361.844
lowerback 11.4822 2.04393 3.20051
upperback 1.5233 3.06657 0.788436
thorax -4.71088 1.42576 -1.44081
lowerneck -14.8199 -1.52021 -10.8997
upperneck 39.0932 -2.22553 3.19586
head 16.8325 -2.80379 2.75807
rclavicle -2.41523e-014 6.36111e-015
rhumerus -36.6245 -1.47066 -82.3663
rradius 37.5556
rwrist 2.84773
rhand -17.3792 7.3877
rfingers 7.12502
rthumb 8.86943 -22.4059
lclavicle -2.41523e-014 6.36111e-015
lhumerus -37.6727 14.7324 74.5805
lradius 34.8963
lwrist -0.704457
lhand -14.8321 27.3085
lfingers 7.12502
lthumb 11.3266 56.9827
rfemur -7.07814 2.84354 20.5392
rtibia 29.9307
rfoot -18.9264 4.94965
rtoes 6.76566
lfemur -17.6123 -10.2348 -19.429
ltibia 31.8113
lfoot -12.6346 -5.45286
ltoes -11.8543
3928
root -13.2556 17.7906 14.1024 0.920002 245.389 -362.059
lowerback 11.4594 1.94702 2.98609
upperback 1.54377 2.91468 0.889043
thorax -4.69988 1.35556 -1.19202
lowerneck -14.8324 -1.57421 -10.8913
upperneck 38.9972 -2.23281 3.07522
head 16.7851 -2.80941 2.70123
rclavicle -5.25785e-014 5.56597e-015
rhumerus -36.4294 -1.41024 -82.2186
rradius 37.3021
rwrist 2.9824
rhand -17.4667 7.49079
rfingers 7.12502
rthumb 8.78504 -22.3064
lclavicle -5.25785e-014 5.56597e-015
lhumerus -38.1018 15.0586 74.9114
lradius 34.5327
lwrist -0.264582
lhand -15.2898 27.3547
lfingers 7.12502
lthumb 10.8852 57.0526
rfemur -7.04545 2.455 20.5534
rtibia 29.8089
rfoot -18.8699 4.43789
rtoes 5.85799
lfemur -17.5617 -9.29934 -19.8609
ltibia 32.6787
lfoot -12.4525 -3.40216
ltoes -11.7403
3929
root -13.2287 17.7928 14.0809 0.700524 246.232 -361.818
lowerback 11.4472 1.86535 2.86519
upperback 1.56153 2.79583 1.01681
thorax -4.69164 1.29975 -0.972614
lowerneck -14.8476 -1.65094 -10.9008
upperneck 38.9513 -2.32995 3.08564
head 16.7754 -2.84062 2.69089
rclavicle -3.58806e-014 -1.90833e-014
rhumerus -36.2731 -1.85471 -82.0134
rradius 37.1649
rwrist 3.07007
rhand -17.0557 7.41054
rfingers 7.12502
rthumb 9.18164 -22.3696
lclavicle -3.58806e-014 -1.90833e-014
lhumerus -38.4827 15.4194 75.105
lradius 34.0588
lwrist -0.128149
lhand -15.4571 27.5407
lfingers 7.12502
lthumb 10.7239 57.247
rfemur -6.934 2.26312 20.8336
rtibia 29.6716
rfoot -18.7628 3.74956
rtoes 5.78898
lfemur -17.4728 -8.30261 -20.0439
ltibia 33.6001
lfoot -12.2775 -1.63614
ltoes -13.0184
3930
root -13.2013 17.7926 14.0607 0.383102 247.097 -361.45
lowerback 11.4373 1.84735 2.87652
upperback 1.53117 2.77798 1.07463
thorax -4.72104 1.29091 -0.916376
lowerneck -14.7221 -1.75144 -10.8726
upperneck 38.9405 -2.58998 3.29944
head 16.7653 -2.91024 2.73678
rclavicle -9.74045e-015 -9.54166e-015
rhumerus -36.1702 -2.7631 -81.7254
rradius 36.9605
rwrist 3.15444
rhand -16.5367 7.50079
rfingers 7.12502
rthumb 9.68239 -22.2567
lclavicle -9.74045e-015 -9.54166e-015
lhumerus -38.8037 15.6514 75.1538
lradius 33.4879
lwrist -0.712553
lhand -15.0554 27.6717
lfingers 7.12502
lthumb 11.1114 57.3576
rfemur -6.8218 2.04328 21.16
rtibia 29.4963
rfoot -18.6389 3.10241
rtoes 5.53205
lfemur -17.4243 -7.27407 -20.1109
ltibia 34.5711
lfoot -12.0757 -0.563446
ltoes -12.0657
3931
root -13.1784 17.7948 14.0437 -0.0881822 247.939 -360.952
lowerback 11.3842 1.87854 2.9628
upperback 1.54584 2.83024 1.13737
thorax -4.67344 1.31637 -0.904709
lowerneck -14.502 -1.8702 -10.6774
upperneck 38.7937 -2.87821 3.39057
head 16.656 -2.97453 2.69211
rclavicle 8.0806e-014 -1.11319e-014
rhumerus -36.0885 -3.59798 -81.4258
rradius 36.6654
rwrist 3.25407
rhand -16.4508 7.75632
rfingers 7.12502
rthumb 9.76527 -21.9973
lclavicle 8.0806e-014 -1.11319e-014
lhumerus -38.9869 15.7603 75.2698
lradius 32.8135
lwrist -1.62132
lhand -14.9136 27.5083
lfingers 7.12502
lthumb 11.2481 57.1867
rfemur -6.67175 1.75416 21.5116
rtibia 29.2895
rfoot -18.5404 2.57524
rtoes 4.41327
lfemur -17.306 -6.36447 -20.113
ltibia 35.5464
lfoot -11.9092 0.183081
ltoes -8.9392
